<!DOCTYPE svg PUBLIC "-//W3C//DTD SVG 20010904//EN" "http://www.w3.org/TR/2001/REC-SVG-20010904/DTD/svg10.dtd">
<svg version="1.0" xmlns="http://www.w3.org/2000/svg" width="59px" height="59px" viewBox="0 0 590 590" preserveAspectRatio="xMidYMid meet">
<g id="layer1" fill="#ffffff" stroke="none">
 <path d="M184 574 c-54 -19 -118 -75 -151 -131 -36 -61 -44 -176 -18 -254 24 -70 101 -149 169 -172 63 -22 159 -22 222 0 66 22 145 101 167 167 22 63 22 159 0 222 -22 66 -101 145 -167 167 -60 21 -166 21 -222 1z m251 -38 c87 -52 136 -138 136 -240 0 -157 -119 -277 -276 -277 -157 0 -276 120 -276 277 0 214 232 347 416 240z"/>
 <path d="M203 418 c-28 -13 -43 -57 -43 -123 0 -114 30 -140 156 -133 103 5 114 18 114 135 0 76 -2 86 -25 108 -22 22 -32 25 -102 24 -43 0 -88 -5 -100 -11z m183 -43 c8 -11 14 -44 14 -82 0 -60 -1 -63 -19 -51 -15 9 -18 19 -14 40 14 73 -88 116 -129 54 -10 -14 -10 -68 0 -83 13 -21 60 -33 87 -23 20 8 25 6 25 -6 0 -12 6 -15 21 -11 17 5 19 3 10 -6 -17 -17 -144 -16 -165 2 -14 11 -16 28 -14 90 3 69 5 77 28 89 37 19 139 11 156 -13z m-61 -80 c0 -25 -4 -30 -24 -30 -32 0 -49 28 -31 50 7 9 23 15 34 13 16 -2 21 -10 21 -33z"/>
 </g>

</svg>