<!DOCTYPE svg PUBLIC "-//W3C//DTD SVG 20010904//EN" "http://www.w3.org/TR/2001/REC-SVG-20010904/DTD/svg10.dtd">
<svg version="1.0" xmlns="http://www.w3.org/2000/svg" width="59px" height="59px" viewBox="0 0 590 590" preserveAspectRatio="xMidYMid meet">
<g id="layer1" fill="#ffffff" stroke="none">
 <path d="M184 574 c-54 -19 -118 -75 -151 -131 -36 -61 -44 -176 -18 -254 24 -70 101 -149 169 -172 63 -22 159 -22 222 0 66 22 145 101 167 167 22 63 22 159 0 222 -22 66 -101 145 -167 167 -60 21 -166 21 -222 1z m251 -38 c87 -52 136 -138 136 -240 0 -157 -119 -277 -276 -277 -157 0 -276 120 -276 277 0 214 232 347 416 240z"/>
 <path d="M203 399 c-44 -13 -51 -29 -14 -29 31 0 41 -13 20 -25 -23 -15 -43 -99 -32 -138 4 -17 6 -17 22 -3 9 8 33 22 54 31 35 15 37 14 37 -5 0 -29 43 -54 77 -45 16 5 35 7 44 6 16 -2 19 17 7 49 -3 8 -13 36 -22 61 -20 54 -41 76 -93 95 -44 15 -56 16 -100 3z"/>
 </g>

</svg>