<!DOCTYPE svg PUBLIC "-//W3C//DTD SVG 20010904//EN" "http://www.w3.org/TR/2001/REC-SVG-20010904/DTD/svg10.dtd">
<svg version="1.0" xmlns="http://www.w3.org/2000/svg" width="59px" height="59px" viewBox="0 0 590 590" preserveAspectRatio="xMidYMid meet">
<g id="layer1" fill="#ffffff" stroke="none">
 <path d="M184 574 c-54 -19 -118 -75 -151 -131 -36 -61 -44 -176 -18 -254 24 -70 101 -149 169 -172 63 -22 159 -22 222 0 66 22 145 101 167 167 22 63 22 159 0 222 -22 66 -101 145 -167 167 -60 21 -166 21 -222 1z m251 -38 c87 -52 136 -138 136 -240 0 -157 -119 -277 -276 -277 -157 0 -276 120 -276 277 0 214 232 347 416 240z"/>
 <path d="M240 290 l0 -90 38 0 c62 0 79 19 79 92 1 35 -4 69 -9 76 -6 6 -32 12 -59 12 l-49 0 0 -90z m74 64 c21 -8 21 -40 0 -48 -33 -13 -44 -6 -44 24 0 30 11 37 44 24z m7 -90 c10 -13 10 -17 -2 -25 -27 -17 -49 -10 -49 16 0 29 30 35 51 9z"/>
 </g>

</svg>